<svg width="150" height="83" viewBox="0 0 150 83" fill="none" xmlns="http://www.w3.org/2000/svg">
<rect x="1" y="1" width="148" height="81" rx="40.5" stroke="#3B302E" stroke-width="2"/>
<path d="M85.7322 42.7778H61.25C60.5596 42.7778 60 42.2057 60 41.5C60 40.7943 60.5596 40.2222 61.25 40.2222H85.7322L77.8661 32.1813C77.378 31.6823 77.378 30.8733 77.8661 30.3743C78.3543 29.8752 79.1457 29.8752 79.6339 30.3743L89.6339 40.5965C90.122 41.0955 90.122 41.9045 89.6339 42.4035L79.6339 52.6257C79.1457 53.1248 78.3543 53.1248 77.8661 52.6257C77.378 52.1267 77.378 51.3177 77.8661 50.8187L85.7322 42.7778Z" fill="#3B302E"/>
</svg>
